# xmcd
#
# Track frame offsets: 
#        150
#        26977
#        53147
#        74740
#        98292
#        126197
#        157257
#        179480
#        200055
#        226230
#        257830
#        281692
#        301127
#        330222
#
# Disc length: 4721 seconds
#
# Revision: 21
# Processed by: cddbd v1.5.2PL0 Copyright (c) Steve Scherf et al.
# Submitted via: ExactAudioCopyFreeDBPlugin 1.0
#
DISCID=ca126f0e
DTITLE=Various Artist - Café Del Mar - Volumen Cuatro
DYEAR=1997
DGENRE=Jazz
TTITLE0=Jose Padilla - Que Bonito
TTITLE1=John Martyn - Sunshines Better (Talvin Singh)
TTITLE2=Indo-Aminata - Leo Leo
TTITLE3=Paco Fernandez - Grillos
TTITLE4=Voices Of Kwahn A.D. - Return Journey
TTITLE5=Les Jumeaux - Miracle Road
TTITLE6=Wasis Diop feat. Lena Fiagbe - No Sant  (Flytronix Mix)
TTITLE7=Levitation - Out Of Time
TTITLE8=Fila Brazillia - Place De La Concorde
TTITLE9=Chicane - Offshore  (Ambient Mix)
TTITLE10=Afterlife - 5th and Avenida
TTITLE11=Karen Ramirez - Troubled Girl  (Spanish Version)
TTITLE12=Phil Mison - Lula
TTITLE13=Stan Getz - Street Tattoo
EXTD=YEAR: 1997
EXTT0=
EXTT1=
EXTT2=
EXTT3=
EXTT4=
EXTT5=
EXTT6=
EXTT7=
EXTT8=
EXTT9=
EXTT10=
EXTT11=
EXTT12=
EXTT13=
PLAYORDER=
